<svg xmlns="http://www.w3.org/2000/svg" viewBox="0 0 18 18" shape-rendering="crispEdges"><rect x="1" y="0" width="16" height="1" fill="#1b2416"/><rect x="0" y="1" width="1" height="1" fill="#1b2416"/><rect x="1" y="1" width="16" height="1" fill="#f2c438"/><rect x="17" y="1" width="1" height="1" fill="#1b2416"/><rect x="0" y="2" width="1" height="1" fill="#1b2416"/><rect x="1" y="2" width="16" height="1" fill="#f2c438"/><rect x="17" y="2" width="1" height="1" fill="#1b2416"/><rect x="0" y="3" width="1" height="1" fill="#1b2416"/><rect x="1" y="3" width="4" height="1" fill="#f2c438"/><rect x="5" y="3" width="8" height="1" fill="#45293f"/><rect x="13" y="3" width="4" height="1" fill="#f2c438"/><rect x="17" y="3" width="1" height="1" fill="#1b2416"/><rect x="0" y="4" width="1" height="1" fill="#1b2416"/><rect x="1" y="4" width="3" height="1" fill="#f2c438"/><rect x="4" y="4" width="1" height="1" fill="#45293f"/><rect x="5" y="4" width="8" height="1" fill="#2d2a33"/><rect x="13" y="4" width="1" height="1" fill="#45293f"/><rect x="14" y="4" width="3" height="1" fill="#f2c438"/><rect x="17" y="4" width="1" height="1" fill="#1b2416"/><rect x="0" y="5" width="1" height="1" fill="#1b2416"/><rect x="1" y="5" width="2" height="1" fill="#f2c438"/><rect x="3" y="5" width="1" height="1" fill="#45293f"/><rect x="4" y="5" width="1" height="1" fill="#4d4857"/><rect x="5" y="5" width="8" height="1" fill="#2d2a33"/><rect x="13" y="5" width="1" height="1" fill="#4d4857"/><rect x="14" y="5" width="1" height="1" fill="#45293f"/><rect x="15" y="5" width="2" height="1" fill="#f2c438"/><rect x="17" y="5" width="1" height="1" fill="#1b2416"/><rect x="0" y="6" width="1" height="1" fill="#1b2416"/><rect x="1" y="6" width="1" height="1" fill="#f2c438"/><rect x="2" y="6" width="1" height="1" fill="#45293f"/><rect x="3" y="6" width="1" height="1" fill="#1b1920"/><rect x="4" y="6" width="1" height="1" fill="#2d2a33"/><rect x="5" y="6" width="1" height="1" fill="#4d4857"/><rect x="6" y="6" width="6" height="1" fill="#2d2a33"/><rect x="12" y="6" width="1" height="1" fill="#4d4857"/><rect x="13" y="6" width="1" height="1" fill="#2d2a33"/><rect x="14" y="6" width="1" height="1" fill="#1b1920"/><rect x="15" y="6" width="1" height="1" fill="#45293f"/><rect x="16" y="6" width="1" height="1" fill="#f2c438"/><rect x="17" y="6" width="1" height="1" fill="#1b2416"/><rect x="0" y="7" width="1" height="1" fill="#1b2416"/><rect x="1" y="7" width="1" height="1" fill="#f2c438"/><rect x="2" y="7" width="1" height="1" fill="#45293f"/><rect x="3" y="7" width="1" height="1" fill="#1b1920"/><rect x="4" y="7" width="2" height="1" fill="#2d2a33"/><rect x="6" y="7" width="2" height="1" fill="#4d4857"/><rect x="8" y="7" width="2" height="1" fill="#2d2a33"/><rect x="10" y="7" width="2" height="1" fill="#4d4857"/><rect x="12" y="7" width="2" height="1" fill="#2d2a33"/><rect x="14" y="7" width="1" height="1" fill="#1b1920"/><rect x="15" y="7" width="1" height="1" fill="#45293f"/><rect x="16" y="7" width="1" height="1" fill="#f2c438"/><rect x="17" y="7" width="1" height="1" fill="#1b2416"/><rect x="0" y="8" width="1" height="1" fill="#1b2416"/><rect x="1" y="8" width="1" height="1" fill="#f2c438"/><rect x="2" y="8" width="1" height="1" fill="#45293f"/><rect x="3" y="8" width="2" height="1" fill="#1b1920"/><rect x="5" y="8" width="3" height="1" fill="#2d2a33"/><rect x="8" y="8" width="2" height="1" fill="#a46d45"/><rect x="10" y="8" width="3" height="1" fill="#2d2a33"/><rect x="13" y="8" width="2" height="1" fill="#1b1920"/><rect x="15" y="8" width="1" height="1" fill="#45293f"/><rect x="16" y="8" width="1" height="1" fill="#f2c438"/><rect x="17" y="8" width="1" height="1" fill="#1b2416"/><rect x="0" y="9" width="1" height="1" fill="#1b2416"/><rect x="1" y="9" width="1" height="1" fill="#f2c438"/><rect x="2" y="9" width="1" height="1" fill="#45293f"/><rect x="3" y="9" width="3" height="1" fill="#1b1920"/><rect x="6" y="9" width="1" height="1" fill="#a46d45"/><rect x="7" y="9" width="1" height="1" fill="#2d2a33"/><rect x="8" y="9" width="2" height="1" fill="#c68b5e"/><rect x="10" y="9" width="1" height="1" fill="#2d2a33"/><rect x="11" y="9" width="1" height="1" fill="#a46d45"/><rect x="12" y="9" width="3" height="1" fill="#1b1920"/><rect x="15" y="9" width="1" height="1" fill="#45293f"/><rect x="16" y="9" width="1" height="1" fill="#f2c438"/><rect x="17" y="9" width="1" height="1" fill="#1b2416"/><rect x="0" y="10" width="1" height="1" fill="#1b2416"/><rect x="1" y="10" width="1" height="1" fill="#f2c438"/><rect x="2" y="10" width="1" height="1" fill="#45293f"/><rect x="3" y="10" width="2" height="1" fill="#1b1920"/><rect x="5" y="10" width="1" height="1" fill="#a46d45"/><rect x="6" y="10" width="6" height="1" fill="#c68b5e"/><rect x="12" y="10" width="1" height="1" fill="#a46d45"/><rect x="13" y="10" width="2" height="1" fill="#1b1920"/><rect x="15" y="10" width="1" height="1" fill="#45293f"/><rect x="16" y="10" width="1" height="1" fill="#f2c438"/><rect x="17" y="10" width="1" height="1" fill="#1b2416"/><rect x="0" y="11" width="1" height="1" fill="#1b2416"/><rect x="1" y="11" width="2" height="1" fill="#f2c438"/><rect x="3" y="11" width="1" height="1" fill="#45293f"/><rect x="4" y="11" width="3" height="1" fill="#c68b5e"/><rect x="7" y="11" width="1" height="1" fill="#2e222f"/><rect x="8" y="11" width="2" height="1" fill="#c68b5e"/><rect x="10" y="11" width="1" height="1" fill="#2e222f"/><rect x="11" y="11" width="3" height="1" fill="#c68b5e"/><rect x="14" y="11" width="1" height="1" fill="#45293f"/><rect x="15" y="11" width="2" height="1" fill="#f2c438"/><rect x="17" y="11" width="1" height="1" fill="#1b2416"/><rect x="0" y="12" width="1" height="1" fill="#1b2416"/><rect x="1" y="12" width="3" height="1" fill="#f2c438"/><rect x="4" y="12" width="1" height="1" fill="#45293f"/><rect x="5" y="12" width="2" height="1" fill="#c68b5e"/><rect x="7" y="12" width="1" height="1" fill="#2e222f"/><rect x="8" y="12" width="2" height="1" fill="#c68b5e"/><rect x="10" y="12" width="1" height="1" fill="#2e222f"/><rect x="11" y="12" width="2" height="1" fill="#c68b5e"/><rect x="13" y="12" width="1" height="1" fill="#45293f"/><rect x="14" y="12" width="3" height="1" fill="#f2c438"/><rect x="17" y="12" width="1" height="1" fill="#1b2416"/><rect x="0" y="13" width="1" height="1" fill="#1b2416"/><rect x="1" y="13" width="4" height="1" fill="#f2c438"/><rect x="5" y="13" width="1" height="1" fill="#45293f"/><rect x="6" y="13" width="6" height="1" fill="#c68b5e"/><rect x="12" y="13" width="1" height="1" fill="#45293f"/><rect x="13" y="13" width="4" height="1" fill="#f2c438"/><rect x="17" y="13" width="1" height="1" fill="#1b2416"/><rect x="0" y="14" width="1" height="1" fill="#1b2416"/><rect x="1" y="14" width="3" height="1" fill="#f2c438"/><rect x="4" y="14" width="1" height="1" fill="#45293f"/><rect x="5" y="14" width="1" height="1" fill="#e23b3b"/><rect x="6" y="14" width="2" height="1" fill="#a82232"/><rect x="8" y="14" width="2" height="1" fill="#a46d45"/><rect x="10" y="14" width="2" height="1" fill="#a82232"/><rect x="12" y="14" width="1" height="1" fill="#e23b3b"/><rect x="13" y="14" width="1" height="1" fill="#45293f"/><rect x="14" y="14" width="3" height="1" fill="#f2c438"/><rect x="17" y="14" width="1" height="1" fill="#1b2416"/><rect x="0" y="15" width="1" height="1" fill="#1b2416"/><rect x="1" y="15" width="2" height="1" fill="#f2c438"/><rect x="3" y="15" width="1" height="1" fill="#45293f"/><rect x="4" y="15" width="1" height="1" fill="#c68b5e"/><rect x="5" y="15" width="3" height="1" fill="#e23b3b"/><rect x="8" y="15" width="2" height="1" fill="#f7f5ee"/><rect x="10" y="15" width="3" height="1" fill="#e23b3b"/><rect x="13" y="15" width="1" height="1" fill="#c68b5e"/><rect x="14" y="15" width="1" height="1" fill="#45293f"/><rect x="15" y="15" width="2" height="1" fill="#f2c438"/><rect x="17" y="15" width="1" height="1" fill="#1b2416"/><rect x="0" y="16" width="1" height="1" fill="#1b2416"/><rect x="1" y="16" width="1" height="1" fill="#f2c438"/><rect x="2" y="16" width="1" height="1" fill="#45293f"/><rect x="3" y="16" width="2" height="1" fill="#c68b5e"/><rect x="5" y="16" width="3" height="1" fill="#e23b3b"/><rect x="8" y="16" width="2" height="1" fill="#f7f5ee"/><rect x="10" y="16" width="3" height="1" fill="#e23b3b"/><rect x="13" y="16" width="2" height="1" fill="#c68b5e"/><rect x="15" y="16" width="1" height="1" fill="#45293f"/><rect x="16" y="16" width="1" height="1" fill="#f2c438"/><rect x="17" y="16" width="1" height="1" fill="#1b2416"/><rect x="1" y="17" width="1" height="1" fill="#1b2416"/><rect x="2" y="17" width="1" height="1" fill="#45293f"/><rect x="3" y="17" width="1" height="1" fill="#a46d45"/><rect x="4" y="17" width="1" height="1" fill="#c68b5e"/><rect x="5" y="17" width="3" height="1" fill="#e23b3b"/><rect x="8" y="17" width="2" height="1" fill="#f7f5ee"/><rect x="10" y="17" width="3" height="1" fill="#e23b3b"/><rect x="13" y="17" width="1" height="1" fill="#c68b5e"/><rect x="14" y="17" width="1" height="1" fill="#a46d45"/><rect x="15" y="17" width="1" height="1" fill="#45293f"/><rect x="16" y="17" width="1" height="1" fill="#1b2416"/></svg>
